<svg width="120" height="120" viewBox="0 0 120 120" fill="none" xmlns="http://www.w3.org/2000/svg">
  <!-- Background Circle with Glass Effect -->
  <defs>
    <filter id="glass-blur" x="-50%" y="-50%" width="200%" height="200%" filterUnits="objectBoundingBox">
      <feGaussianBlur in="SourceGraphic" stdDeviation="2"/>
      <feColorMatrix type="matrix" values="1 0 0 0 0 0 1 0 0 0 0 0 1 0 0 0 0 0 0.8 0"/>
    </filter>
    
    <linearGradient id="glass-gradient" x1="0%" y1="0%" x2="100%" y2="100%">
      <stop offset="0%" style="stop-color:#ffffff;stop-opacity:0.3" />
      <stop offset="50%" style="stop-color:#ffffff;stop-opacity:0.1" />
      <stop offset="100%" style="stop-color:#ffffff;stop-opacity:0.05" />
    </linearGradient>
    
    <linearGradient id="liquid-gradient" x1="0%" y1="0%" x2="100%" y2="100%">
      <stop offset="0%" style="stop-color:#3b82f6;stop-opacity:1" />
      <stop offset="33%" style="stop-color:#8b5cf6;stop-opacity:1" />
      <stop offset="66%" style="stop-color:#06b6d4;stop-opacity:1" />
      <stop offset="100%" style="stop-color:#10b981;stop-opacity:1" />
    </linearGradient>
    
    <linearGradient id="highlight-gradient" x1="0%" y1="0%" x2="100%" y2="50%">
      <stop offset="0%" style="stop-color:#ffffff;stop-opacity:0.6" />
      <stop offset="100%" style="stop-color:#ffffff;stop-opacity:0" />
    </linearGradient>
  </defs>
  
  <!-- Outer Glass Container -->
  <circle cx="60" cy="60" r="58" 
          fill="url(#glass-gradient)" 
          stroke="rgba(255, 255, 255, 0.2)" 
          stroke-width="1"
          filter="url(#glass-blur)"/>
  
  <!-- Liquid Flow Shape - Main Element -->
  <path d="M30 45 Q45 25, 65 35 Q85 45, 90 65 Q85 85, 65 85 Q45 95, 30 75 Q25 55, 30 45 Z" 
        fill="url(#liquid-gradient)" 
        opacity="0.9"/>
  
  <!-- Liquid Drops -->
  <circle cx="72" cy="48" r="8" fill="url(#liquid-gradient)" opacity="0.7"/>
  <circle cx="48" cy="72" r="6" fill="url(#liquid-gradient)" opacity="0.6"/>
  <circle cx="65" cy="65" r="4" fill="url(#liquid-gradient)" opacity="0.8"/>
  
  <!-- Glass Reflection Highlight -->
  <ellipse cx="50" cy="40" rx="25" ry="15" 
           fill="url(#highlight-gradient)" 
           opacity="0.4"/>
  
  <!-- UI Elements - representing components -->
  <rect x="25" y="30" width="20" height="3" rx="1.5" 
        fill="rgba(255, 255, 255, 0.6)" opacity="0.8"/>
  <rect x="25" y="36" width="15" height="3" rx="1.5" 
        fill="rgba(255, 255, 255, 0.4)" opacity="0.6"/>
  <rect x="25" y="42" width="18" height="3" rx="1.5" 
        fill="rgba(255, 255, 255, 0.5)" opacity="0.7"/>
  
  <!-- Glass Panels -->
  <rect x="70" y="75" width="18" height="12" rx="2" 
        fill="rgba(255, 255, 255, 0.15)" 
        stroke="rgba(255, 255, 255, 0.3)" 
        stroke-width="0.5"/>
  
  <rect x="40" y="85" width="15" height="10" rx="2" 
        fill="rgba(255, 255, 255, 0.1)" 
        stroke="rgba(255, 255, 255, 0.25)" 
        stroke-width="0.5"/>
  
  <!-- Inner Glass Ring -->
  <circle cx="60" cy="60" r="45" 
          fill="none" 
          stroke="rgba(255, 255, 255, 0.15)" 
          stroke-width="1"/>
  
  <!-- Subtle Glow Effect -->
  <circle cx="60" cy="60" r="52" 
          fill="none" 
          stroke="url(#liquid-gradient)" 
          stroke-width="0.5" 
          opacity="0.3"/>
</svg>